<?xml version="1.0" encoding="utf-8"?>
<!-- Generator: Adobe Illustrator 16.0.3, SVG Export Plug-In . SVG Version: 6.00 Build 0)  -->
<!DOCTYPE svg PUBLIC "-//W3C//DTD SVG 1.1//EN" "http://www.w3.org/Graphics/SVG/1.1/DTD/svg11.dtd">
<svg version="1.1" id="Layer_1" xmlns="http://www.w3.org/2000/svg" xmlns:xlink="http://www.w3.org/1999/xlink" x="0px" y="0px"
	 width="802px" height="274px" viewBox="0 0 802 274" enable-background="new 0 0 802 274" xml:space="preserve">
<g>
	<path fill="#FFFFFF" d="M6,166.881h29.33L91.763,7H62.434L6,166.881z M113.288,24.412L100.51,61.651
		c1.482,5.076,3.562,11.857,5.926,18.783l10.502,29.937H83.291L74.1,136.377h52.223l10.754,30.504h30.112L113.288,24.412z
		 M247.774,92.861l7.142-25.847c0,0-4.894-4.362-18.249-4.362c-9.162,0-16.953,3.743-22.837,10.366v-9.114h-26.985v102.655h26.985
		v-53.264c0-16.633,6.103-23.865,15.389-24.496C238.505,88.166,244.659,91.283,247.774,92.861 M769.633,166.51v-55.531
		c0-18.379-5.279-23.856-16.425-23.856s-16.621,5.477-16.621,23.27v56.117h-26.983v-55.531c0-18.379-5.277-23.856-16.424-23.856
		c-11.144,0-16.622,5.477-16.622,23.27v56.117h-26.979V63.854h26.979v6.843c4.695-4.888,11.734-8.992,22.486-8.992
		c13.1,0,20.728,3.713,28.354,13.1c7.037-7.235,15.642-13.1,32.653-13.1c26.201,0,36.565,17.987,36.565,46.926v57.879H769.633z
		 M600.819,166.51v-6.844c-4.694,4.889-13.298,8.994-24.052,8.994c-26.201,0-37.935-17.988-37.935-46.927V63.854h26.983v55.533
		c0,18.379,6.258,23.853,17.402,23.853c11.146,0,17.601-5.474,17.601-23.267V63.854h26.98V166.51H600.819z M486.854,166.51h-27.765
		L422.133,63.854h29.721l15.055,47.515c2.544,7.821,5.279,17.598,6.454,22.487c1.171-5.084,3.911-14.469,6.452-22.487l15.055-47.515
		h28.938L486.854,166.51z M405.717,63.854h-26.981V166.51h26.981V63.854z M407.674,39.25c0-8.408-7.041-15.447-15.447-15.447
		c-8.411,0-15.448,7.039-15.448,15.447s7.037,15.447,15.448,15.447C400.633,54.697,407.674,47.658,407.674,39.25 M330.786,166.51
		l-19.553-47.32l-13.099,16.23v31.09h-26.985V37.459l26.985-13.492V78.52c0,6.257-0.196,16.816-0.393,21.9
		c2.738-4.107,7.43-10.56,10.951-15.057l16.621-21.509h31.871l-26.398,32.654l29.527,70.002H330.786z"/>
</g>
<g>
	<path fill="#FFFFFF" d="M6.057,200.953c0-0.471,0.314-0.785,0.786-0.785H38.99c0.471,0,0.786,0.314,0.786,0.785v4.952
		c0,0.472-0.315,0.786-0.786,0.786H13.524c-0.314,0-0.471,0.157-0.471,0.472v15.72c0,0.314,0.157,0.471,0.471,0.471h21.615
		c0.471,0,0.785,0.314,0.785,0.786v4.952c0,0.472-0.314,0.786-0.785,0.786H13.524c-0.314,0-0.471,0.157-0.471,0.471v16.271
		c0,0.313,0.157,0.472,0.471,0.472H38.99c0.471,0,0.786,0.314,0.786,0.786v4.951c0,0.472-0.315,0.786-0.786,0.786H6.843
		c-0.472,0-0.786-0.314-0.786-0.786V200.953z"/>
	<path fill="#FFFFFF" d="M58.815,253.614c-0.55,0-0.786-0.314-0.943-0.786l-13.519-36.076c-0.157-0.472,0.079-0.786,0.629-0.786
		h5.423c0.551,0,0.786,0.235,1.022,0.786l9.746,27.037h0.157l9.511-27.037c0.157-0.551,0.471-0.786,0.943-0.786h5.344
		c0.551,0,0.787,0.314,0.629,0.786l-13.44,36.076c-0.157,0.472-0.472,0.786-1.022,0.786H58.815z"/>
	<path fill="#FFFFFF" d="M106.464,231.528c0.314,0,0.471-0.157,0.471-0.473c0-1.729-0.157-3.064-0.55-4.244
		c-1.257-3.771-4.401-5.894-8.646-5.894c-4.244,0-7.388,2.122-8.646,5.894c-0.392,1.18-0.549,2.516-0.549,4.244
		c0,0.315,0.157,0.473,0.471,0.473H106.464z M83.042,244.26c-0.786-2.436-1.258-5.187-1.258-9.509c0-4.324,0.393-7.232,1.179-9.511
		c2.122-6.524,7.624-10.14,14.776-10.14c7.231,0,12.655,3.694,14.777,10.14c0.786,2.436,1.179,5.029,1.179,10.767
		c0,0.472-0.314,0.787-0.865,0.787H89.015c-0.314,0-0.471,0.157-0.471,0.471c0,2.044,0.235,3.303,0.628,4.56
		c1.494,4.323,4.873,6.523,9.511,6.523c4.48,0,7.624-1.808,9.667-4.166c0.393-0.393,0.786-0.471,1.179-0.156l3.223,2.907
		c0.393,0.315,0.393,0.707,0.078,1.102c-2.987,3.771-8.095,6.443-14.698,6.443C90.508,254.478,85.085,250.785,83.042,244.26"/>
	<path fill="#FFFFFF" d="M122.673,253.614c-0.472,0-0.786-0.314-0.786-0.786v-36.076c0-0.472,0.314-0.786,0.786-0.786h5.03
		c0.472,0,0.786,0.314,0.786,0.786v3.851h0.079c1.65-3.222,4.952-5.502,9.982-5.502c2.987,0,5.816,1.101,7.703,2.829
		c0.393,0.395,0.471,0.707,0.157,1.102l-2.908,3.852c-0.315,0.393-0.708,0.471-1.101,0.157c-1.729-1.101-3.615-1.809-5.816-1.809
		c-5.738,0-8.096,4.48-8.096,11.004v20.593c0,0.472-0.314,0.786-0.786,0.786H122.673z"/>
	<path fill="#FFFFFF" d="M156.645,267.762c-0.471,0-0.786-0.313-0.786-0.786v-4.559c0-0.471,0.315-0.786,0.786-0.786h1.415
		c3.065,0,4.716-1.336,6.366-5.658l1.258-3.459l-13.833-35.762c-0.158-0.471,0.078-0.786,0.628-0.786h5.502
		c0.472,0,0.786,0.235,0.943,0.786l9.904,27.195h0.157l9.511-27.195c0.157-0.551,0.471-0.786,0.942-0.786h5.345
		c0.472,0,0.786,0.315,0.629,0.786l-14.855,39.771c-3.301,8.882-6.209,11.238-11.869,11.238H156.645z"/>
	<path fill="#FFFFFF" d="M234.716,242.61c0.629-1.966,0.865-4.401,0.865-7.859c0-3.38-0.236-5.817-0.865-7.861
		c-1.258-3.692-4.087-5.658-8.253-5.658c-4.165,0-7.074,1.887-8.331,5.658c-0.629,1.888-0.865,4.088-0.865,7.861
		c0,3.772,0.236,6.051,0.865,7.859c1.257,3.771,4.166,5.737,8.331,5.737C230.629,248.348,233.458,246.304,234.716,242.61
		 M211.451,253.614c-0.472,0-0.786-0.315-0.786-0.786v-51.875c0-0.471,0.314-0.785,0.786-0.785h5.03
		c0.472,0,0.786,0.314,0.786,0.785v19.336h0.079c1.807-2.988,5.03-5.188,10.689-5.188c6.524,0,11.082,3.066,12.969,9.038
		c1.022,2.988,1.336,5.975,1.336,10.612c0,4.715-0.314,7.702-1.336,10.689c-1.887,5.973-6.445,9.037-12.969,9.037
		c-5.659,0-8.882-2.278-10.689-5.265h-0.079v3.615c0,0.471-0.314,0.786-0.786,0.786H211.451z"/>
	<path fill="#FFFFFF" d="M250.376,253.614c-0.472,0-0.786-0.314-0.786-0.786v-36.076c0-0.472,0.314-0.786,0.786-0.786h5.03
		c0.472,0,0.786,0.314,0.786,0.786v36.076c0,0.472-0.314,0.786-0.786,0.786H250.376z M250.219,207.477
		c-0.472,0-0.786-0.313-0.786-0.785v-5.738c0-0.471,0.314-0.785,0.786-0.785h5.345c0.471,0,0.786,0.314,0.786,0.785v5.738
		c0,0.472-0.315,0.785-0.786,0.785H250.219z"/>
	<path fill="#FFFFFF" d="M279.081,254.007c-7.31,0-10.139-3.301-10.139-10.688v-21.537c0-0.314-0.157-0.472-0.472-0.472h-3.143
		c-0.472,0-0.787-0.314-0.787-0.785v-3.773c0-0.472,0.315-0.786,0.787-0.786h3.143c0.315,0,0.472-0.157,0.472-0.472v-10.61
		c0-0.472,0.314-0.786,0.786-0.786h5.03c0.472,0,0.786,0.314,0.786,0.786v10.61c0,0.314,0.157,0.472,0.472,0.472h5.973
		c0.472,0,0.786,0.314,0.786,0.786v3.773c0,0.471-0.314,0.785-0.786,0.785h-5.973c-0.315,0-0.472,0.157-0.472,0.472v21.3
		c0,3.773,1.415,4.795,4.795,4.795h1.65c0.472,0,0.786,0.315,0.786,0.785v4.56c0,0.472-0.314,0.785-0.786,0.785H279.081z"/>
	<path fill="#FFFFFF" d="M331.508,241.432v-4.166c0-0.313-0.157-0.472-0.472-0.472h-7.545c-6.524,0-9.353,1.887-9.353,6.131
		c0,3.853,2.829,5.896,7.86,5.896C327.892,248.82,331.508,246.069,331.508,241.432 M332.451,253.615
		c-0.471,0-0.786-0.315-0.786-0.787v-3.3h-0.078c-1.73,2.829-5.424,4.95-11.162,4.95c-7.152,0-12.654-3.692-12.654-11.317
		c0-7.938,5.502-11.632,14.698-11.632h8.567c0.315,0,0.472-0.158,0.472-0.473v-2.751c0-5.187-2.043-7.388-9.039-7.388
		c-4.244,0-6.917,1.1-9.117,2.672c-0.393,0.315-0.865,0.315-1.101-0.079l-2.122-3.614c-0.236-0.473-0.157-0.786,0.157-1.102
		c2.83-2.2,7.231-3.693,12.812-3.693c10.689,0,14.776,3.536,14.776,12.812v24.915c0,0.472-0.314,0.787-0.785,0.787H332.451z"/>
	<path fill="#FFFFFF" d="M347.561,253.614c-0.472,0-0.786-0.314-0.786-0.786v-36.076c0-0.472,0.314-0.786,0.786-0.786h5.03
		c0.472,0,0.786,0.314,0.786,0.786v3.851h0.079c1.65-3.222,4.952-5.502,9.982-5.502c2.987,0,5.816,1.101,7.703,2.829
		c0.393,0.395,0.471,0.707,0.157,1.102l-2.908,3.852c-0.315,0.393-0.708,0.471-1.101,0.157c-1.729-1.101-3.615-1.809-5.816-1.809
		c-5.738,0-8.096,4.48-8.096,11.004v20.593c0,0.472-0.314,0.786-0.786,0.786H347.561z"/>
	<path fill="#FFFFFF" d="M375.56,225.24c2.122-6.523,7.624-10.14,14.855-10.14c5.738,0,10.139,2.438,12.89,6.367
		c0.236,0.393,0.236,0.707-0.235,1.101l-3.458,2.829c-0.393,0.314-0.786,0.314-1.1-0.078c-2.201-2.751-4.324-4.088-8.096-4.088
		c-4.087,0-7.152,1.966-8.41,5.896c-0.629,1.965-0.864,4.322-0.864,7.624c0,3.38,0.235,5.737,0.864,7.702
		c1.258,3.93,4.323,5.895,8.41,5.895c3.772,0,5.895-1.337,8.096-4.087c0.314-0.393,0.707-0.393,1.1-0.079l3.458,2.829
		c0.472,0.395,0.472,0.708,0.235,1.102c-2.75,3.93-7.152,6.365-12.89,6.365c-7.231,0-12.733-3.614-14.855-10.138
		c-0.708-2.28-1.179-5.345-1.179-9.589C374.381,230.585,374.852,227.519,375.56,225.24"/>
	<path fill="#FFFFFF" d="M435.784,253.614c-0.473,0-0.786-0.314-0.786-0.786v-22.007c0-6.054-2.751-9.59-8.41-9.59
		c-5.109,0-8.646,3.615-8.646,9.195v22.401c0,0.472-0.314,0.786-0.786,0.786h-5.03c-0.472,0-0.786-0.314-0.786-0.786v-51.875
		c0-0.471,0.314-0.785,0.786-0.785h5.03c0.472,0,0.786,0.314,0.786,0.785v19.257h0.079c1.807-2.909,5.423-5.109,10.531-5.109
		c8.174,0,13.047,5.58,13.047,14.148v23.579c0,0.472-0.313,0.786-0.785,0.786H435.784z"/>
	<path fill="#FFFFFF" d="M451.443,253.614c-0.473,0-0.786-0.314-0.786-0.786v-36.076c0-0.472,0.313-0.786,0.786-0.786h5.029
		c0.473,0,0.786,0.314,0.786,0.786v36.076c0,0.472-0.313,0.786-0.786,0.786H451.443z M451.286,207.477
		c-0.472,0-0.786-0.313-0.786-0.785v-5.738c0-0.471,0.314-0.785,0.786-0.785h5.345c0.471,0,0.786,0.314,0.786,0.785v5.738
		c0,0.472-0.315,0.785-0.786,0.785H451.286z"/>
	<path fill="#FFFFFF" d="M479.912,253.614c-0.55,0-0.786-0.314-0.943-0.786l-13.519-36.076c-0.157-0.472,0.079-0.786,0.629-0.786
		h5.423c0.551,0,0.786,0.235,1.022,0.786l9.745,27.037h0.157l9.511-27.037c0.157-0.551,0.472-0.786,0.943-0.786h5.344
		c0.552,0,0.787,0.314,0.629,0.786l-13.439,36.076c-0.157,0.472-0.472,0.786-1.022,0.786H479.912z"/>
	<path fill="#FFFFFF" d="M528.111,231.528c0.313,0,0.471-0.157,0.471-0.473c0-1.729-0.157-3.064-0.549-4.244
		c-1.258-3.771-4.402-5.894-8.647-5.894c-4.244,0-7.388,2.122-8.646,5.894c-0.394,1.18-0.549,2.516-0.549,4.244
		c0,0.315,0.155,0.473,0.471,0.473H528.111z M504.689,244.26c-0.786-2.436-1.259-5.187-1.259-9.509c0-4.324,0.394-7.232,1.18-9.511
		c2.122-6.524,7.624-10.14,14.775-10.14c7.231,0,12.655,3.694,14.778,10.14c0.785,2.436,1.177,5.029,1.177,10.767
		c0,0.472-0.313,0.787-0.863,0.787h-23.815c-0.315,0-0.471,0.157-0.471,0.471c0,2.044,0.233,3.303,0.629,4.56
		c1.492,4.323,4.873,6.523,9.51,6.523c4.479,0,7.623-1.808,9.668-4.166c0.392-0.393,0.785-0.471,1.177-0.156l3.224,2.907
		c0.393,0.315,0.393,0.707,0.079,1.102c-2.987,3.771-8.096,6.443-14.698,6.443C512.156,254.478,506.732,250.785,504.689,244.26"/>
	<path fill="#FFFFFF" d="M566.564,242.61c0.629-1.809,0.862-4.087,0.862-7.859c0-3.773-0.233-5.974-0.862-7.861
		c-1.259-3.771-4.166-5.658-8.332-5.658s-6.995,1.966-8.252,5.658c-0.629,2.044-0.865,4.481-0.865,7.861
		c0,3.458,0.236,5.894,0.865,7.859c1.257,3.693,4.086,5.737,8.252,5.737S565.306,246.382,566.564,242.61 M568.214,253.614
		c-0.472,0-0.787-0.315-0.787-0.786v-3.615h-0.078c-1.806,2.986-5.028,5.265-10.688,5.265c-6.524,0-11.082-3.064-12.969-9.037
		c-1.022-2.987-1.336-5.975-1.336-10.689c0-4.638,0.313-7.624,1.336-10.612c1.887-5.972,6.444-9.038,12.969-9.038
		c5.66,0,8.883,2.2,10.688,5.188h0.078v-19.336c0-0.471,0.315-0.785,0.787-0.785h5.031c0.471,0,0.786,0.314,0.786,0.785v51.875
		c0,0.471-0.315,0.786-0.786,0.786H568.214z"/>
</g>
</svg>
